<svg xmlns="http://www.w3.org/2000/svg" version="1.1" xmlns:xlink="http://www.w3.org/1999/xlink" xmlns:svgjs="http://svgjs.dev/svgjs" width="1440" height="560" preserveAspectRatio="none" viewBox="0 0 1440 560"><g mask="url(&quot;#SvgjsMask1003&quot;)" fill="none"><rect width="1440" height="560" x="0" y="0" fill="#0e2a47"></rect><path d="M34.57 209.96L99.52 247.46L99.52 322.46L34.57 359.96L-30.38 322.46L-30.38 247.46zM294.38 -15.04L359.34 22.46L359.34 97.46L294.38 134.96L229.43 97.46L229.43 22.46zM294.38 209.96L359.34 247.46L359.34 322.46L294.38 359.96L229.43 322.46L229.43 247.46zM359.34 322.46L424.29 359.96L424.29 434.96L359.34 472.46L294.38 434.96L294.38 359.96zM359.34 547.46L424.29 584.96L424.29 659.96L359.34 697.46L294.38 659.96L294.38 584.96zM489.25 547.46L554.2 584.96L554.2 659.96L489.25 697.46L424.29 659.96L424.29 584.96zM749.06 322.46L814.02 359.96L814.02 434.96L749.06 472.46L684.11 434.96L684.11 359.96zM814.01 -15.04L878.97 22.46L878.97 97.46L814.01 134.96L749.06 97.46L749.06 22.46zM814.01 209.96L878.97 247.46L878.97 322.46L814.01 359.96L749.06 322.46L749.06 247.46zM814.01 434.96L878.97 472.46L878.97 547.46L814.01 584.96L749.06 547.46L749.06 472.46zM1008.88 547.46L1073.83 584.96L1073.83 659.96L1008.88 697.46L943.92 659.96L943.92 584.96zM1073.83 -15.04L1138.78 22.46L1138.78 97.46L1073.83 134.96L1008.88 97.46L1008.88 22.46zM1138.78 322.46L1203.74 359.96L1203.74 434.96L1138.78 472.46L1073.83 434.96L1073.83 359.96zM1138.78 547.46L1203.74 584.96L1203.74 659.96L1138.78 697.46L1073.83 659.96L1073.83 584.96zM1268.69 97.46L1333.64 134.96L1333.64 209.96L1268.69 247.46L1203.74 209.96L1203.74 134.96zM1398.6 322.46L1463.55 359.96L1463.55 434.96L1398.6 472.46L1333.64 434.96L1333.64 359.96zM1398.6 547.46L1463.55 584.96L1463.55 659.96L1398.6 697.46L1333.64 659.96L1333.64 584.96zM1528.51 547.46L1593.46 584.96L1593.46 659.96L1528.51 697.46L1463.55 659.96L1463.55 584.96z" stroke="#03305d" stroke-width="2"></path><path d="M27.07 209.96 a7.5 7.5 0 1 0 15 0 a7.5 7.5 0 1 0 -15 0zM92.02 247.46 a7.5 7.5 0 1 0 15 0 a7.5 7.5 0 1 0 -15 0zM92.02 322.46 a7.5 7.5 0 1 0 15 0 a7.5 7.5 0 1 0 -15 0zM27.07 359.96 a7.5 7.5 0 1 0 15 0 a7.5 7.5 0 1 0 -15 0zM-37.88 322.46 a7.5 7.5 0 1 0 15 0 a7.5 7.5 0 1 0 -15 0zM-37.88 247.46 a7.5 7.5 0 1 0 15 0 a7.5 7.5 0 1 0 -15 0zM286.88 -15.04 a7.5 7.5 0 1 0 15 0 a7.5 7.5 0 1 0 -15 0zM351.84 22.46 a7.5 7.5 0 1 0 15 0 a7.5 7.5 0 1 0 -15 0zM351.84 97.46 a7.5 7.5 0 1 0 15 0 a7.5 7.5 0 1 0 -15 0zM286.88 134.96 a7.5 7.5 0 1 0 15 0 a7.5 7.5 0 1 0 -15 0zM221.93 97.46 a7.5 7.5 0 1 0 15 0 a7.5 7.5 0 1 0 -15 0zM221.93 22.46 a7.5 7.5 0 1 0 15 0 a7.5 7.5 0 1 0 -15 0zM286.88 209.96 a7.5 7.5 0 1 0 15 0 a7.5 7.5 0 1 0 -15 0zM351.84 247.46 a7.5 7.5 0 1 0 15 0 a7.5 7.5 0 1 0 -15 0zM351.84 322.46 a7.5 7.5 0 1 0 15 0 a7.5 7.5 0 1 0 -15 0zM286.88 359.96 a7.5 7.5 0 1 0 15 0 a7.5 7.5 0 1 0 -15 0zM221.93 322.46 a7.5 7.5 0 1 0 15 0 a7.5 7.5 0 1 0 -15 0zM221.93 247.46 a7.5 7.5 0 1 0 15 0 a7.5 7.5 0 1 0 -15 0zM416.79 359.96 a7.5 7.5 0 1 0 15 0 a7.5 7.5 0 1 0 -15 0zM416.79 434.96 a7.5 7.5 0 1 0 15 0 a7.5 7.5 0 1 0 -15 0zM351.84 472.46 a7.5 7.5 0 1 0 15 0 a7.5 7.5 0 1 0 -15 0zM286.88 434.96 a7.5 7.5 0 1 0 15 0 a7.5 7.5 0 1 0 -15 0zM351.84 547.46 a7.5 7.5 0 1 0 15 0 a7.5 7.5 0 1 0 -15 0zM416.79 584.96 a7.5 7.5 0 1 0 15 0 a7.5 7.5 0 1 0 -15 0zM416.79 659.96 a7.5 7.5 0 1 0 15 0 a7.5 7.5 0 1 0 -15 0zM351.84 697.46 a7.5 7.5 0 1 0 15 0 a7.5 7.5 0 1 0 -15 0zM286.88 659.96 a7.5 7.5 0 1 0 15 0 a7.5 7.5 0 1 0 -15 0zM286.88 584.96 a7.5 7.5 0 1 0 15 0 a7.5 7.5 0 1 0 -15 0zM481.75 547.46 a7.5 7.5 0 1 0 15 0 a7.5 7.5 0 1 0 -15 0zM546.7 584.96 a7.5 7.5 0 1 0 15 0 a7.5 7.5 0 1 0 -15 0zM546.7 659.96 a7.5 7.5 0 1 0 15 0 a7.5 7.5 0 1 0 -15 0zM481.75 697.46 a7.5 7.5 0 1 0 15 0 a7.5 7.5 0 1 0 -15 0zM741.56 322.46 a7.5 7.5 0 1 0 15 0 a7.5 7.5 0 1 0 -15 0zM806.52 359.96 a7.5 7.5 0 1 0 15 0 a7.5 7.5 0 1 0 -15 0zM806.52 434.96 a7.5 7.5 0 1 0 15 0 a7.5 7.5 0 1 0 -15 0zM741.56 472.46 a7.5 7.5 0 1 0 15 0 a7.5 7.5 0 1 0 -15 0zM676.61 434.96 a7.5 7.5 0 1 0 15 0 a7.5 7.5 0 1 0 -15 0zM676.61 359.96 a7.5 7.5 0 1 0 15 0 a7.5 7.5 0 1 0 -15 0zM806.51 -15.04 a7.5 7.5 0 1 0 15 0 a7.5 7.5 0 1 0 -15 0zM871.47 22.46 a7.5 7.5 0 1 0 15 0 a7.5 7.5 0 1 0 -15 0zM871.47 97.46 a7.5 7.5 0 1 0 15 0 a7.5 7.5 0 1 0 -15 0zM806.51 134.96 a7.5 7.5 0 1 0 15 0 a7.5 7.5 0 1 0 -15 0zM741.56 97.46 a7.5 7.5 0 1 0 15 0 a7.5 7.5 0 1 0 -15 0zM741.56 22.46 a7.5 7.5 0 1 0 15 0 a7.5 7.5 0 1 0 -15 0zM806.51 209.96 a7.5 7.5 0 1 0 15 0 a7.5 7.5 0 1 0 -15 0zM871.47 247.46 a7.5 7.5 0 1 0 15 0 a7.5 7.5 0 1 0 -15 0zM871.47 322.46 a7.5 7.5 0 1 0 15 0 a7.5 7.5 0 1 0 -15 0zM806.51 359.96 a7.5 7.5 0 1 0 15 0 a7.5 7.5 0 1 0 -15 0zM741.56 247.46 a7.5 7.5 0 1 0 15 0 a7.5 7.5 0 1 0 -15 0zM806.51 434.96 a7.5 7.5 0 1 0 15 0 a7.5 7.5 0 1 0 -15 0zM871.47 472.46 a7.5 7.5 0 1 0 15 0 a7.5 7.5 0 1 0 -15 0zM871.47 547.46 a7.5 7.5 0 1 0 15 0 a7.5 7.5 0 1 0 -15 0zM806.51 584.96 a7.5 7.5 0 1 0 15 0 a7.5 7.5 0 1 0 -15 0zM741.56 547.46 a7.5 7.5 0 1 0 15 0 a7.5 7.5 0 1 0 -15 0zM1001.38 547.46 a7.5 7.5 0 1 0 15 0 a7.5 7.5 0 1 0 -15 0zM1066.33 584.96 a7.5 7.5 0 1 0 15 0 a7.5 7.5 0 1 0 -15 0zM1066.33 659.96 a7.5 7.5 0 1 0 15 0 a7.5 7.5 0 1 0 -15 0zM1001.38 697.46 a7.5 7.5 0 1 0 15 0 a7.5 7.5 0 1 0 -15 0zM936.42 659.96 a7.5 7.5 0 1 0 15 0 a7.5 7.5 0 1 0 -15 0zM936.42 584.96 a7.5 7.5 0 1 0 15 0 a7.5 7.5 0 1 0 -15 0zM1066.33 -15.04 a7.5 7.5 0 1 0 15 0 a7.5 7.5 0 1 0 -15 0zM1131.28 22.46 a7.5 7.5 0 1 0 15 0 a7.5 7.5 0 1 0 -15 0zM1131.28 97.46 a7.5 7.5 0 1 0 15 0 a7.5 7.5 0 1 0 -15 0zM1066.33 134.96 a7.5 7.5 0 1 0 15 0 a7.5 7.5 0 1 0 -15 0zM1001.38 97.46 a7.5 7.5 0 1 0 15 0 a7.5 7.5 0 1 0 -15 0zM1001.38 22.46 a7.5 7.5 0 1 0 15 0 a7.5 7.5 0 1 0 -15 0zM1131.28 322.46 a7.5 7.5 0 1 0 15 0 a7.5 7.5 0 1 0 -15 0zM1196.24 359.96 a7.5 7.5 0 1 0 15 0 a7.5 7.5 0 1 0 -15 0zM1196.24 434.96 a7.5 7.5 0 1 0 15 0 a7.5 7.5 0 1 0 -15 0zM1131.28 472.46 a7.5 7.5 0 1 0 15 0 a7.5 7.5 0 1 0 -15 0zM1066.33 434.96 a7.5 7.5 0 1 0 15 0 a7.5 7.5 0 1 0 -15 0zM1066.33 359.96 a7.5 7.5 0 1 0 15 0 a7.5 7.5 0 1 0 -15 0zM1131.28 547.46 a7.5 7.5 0 1 0 15 0 a7.5 7.5 0 1 0 -15 0zM1196.24 584.96 a7.5 7.5 0 1 0 15 0 a7.5 7.5 0 1 0 -15 0zM1196.24 659.96 a7.5 7.5 0 1 0 15 0 a7.5 7.5 0 1 0 -15 0zM1131.28 697.46 a7.5 7.5 0 1 0 15 0 a7.5 7.5 0 1 0 -15 0zM1261.19 97.46 a7.5 7.5 0 1 0 15 0 a7.5 7.5 0 1 0 -15 0zM1326.14 134.96 a7.5 7.5 0 1 0 15 0 a7.5 7.5 0 1 0 -15 0zM1326.14 209.96 a7.5 7.5 0 1 0 15 0 a7.5 7.5 0 1 0 -15 0zM1261.19 247.46 a7.5 7.5 0 1 0 15 0 a7.5 7.5 0 1 0 -15 0zM1196.24 209.96 a7.5 7.5 0 1 0 15 0 a7.5 7.5 0 1 0 -15 0zM1196.24 134.96 a7.5 7.5 0 1 0 15 0 a7.5 7.5 0 1 0 -15 0zM1391.1 322.46 a7.5 7.5 0 1 0 15 0 a7.5 7.5 0 1 0 -15 0zM1456.05 359.96 a7.5 7.5 0 1 0 15 0 a7.5 7.5 0 1 0 -15 0zM1456.05 434.96 a7.5 7.5 0 1 0 15 0 a7.5 7.5 0 1 0 -15 0zM1391.1 472.46 a7.5 7.5 0 1 0 15 0 a7.5 7.5 0 1 0 -15 0zM1326.14 434.96 a7.5 7.5 0 1 0 15 0 a7.5 7.5 0 1 0 -15 0zM1326.14 359.96 a7.5 7.5 0 1 0 15 0 a7.5 7.5 0 1 0 -15 0zM1391.1 547.46 a7.5 7.5 0 1 0 15 0 a7.5 7.5 0 1 0 -15 0zM1456.05 584.96 a7.5 7.5 0 1 0 15 0 a7.5 7.5 0 1 0 -15 0zM1456.05 659.96 a7.5 7.5 0 1 0 15 0 a7.5 7.5 0 1 0 -15 0zM1391.1 697.46 a7.5 7.5 0 1 0 15 0 a7.5 7.5 0 1 0 -15 0zM1326.14 659.96 a7.5 7.5 0 1 0 15 0 a7.5 7.5 0 1 0 -15 0zM1326.14 584.96 a7.5 7.5 0 1 0 15 0 a7.5 7.5 0 1 0 -15 0zM1521.01 547.46 a7.5 7.5 0 1 0 15 0 a7.5 7.5 0 1 0 -15 0zM1585.96 584.96 a7.5 7.5 0 1 0 15 0 a7.5 7.5 0 1 0 -15 0zM1585.96 659.96 a7.5 7.5 0 1 0 15 0 a7.5 7.5 0 1 0 -15 0zM1521.01 697.46 a7.5 7.5 0 1 0 15 0 a7.5 7.5 0 1 0 -15 0z" fill="#03305d"></path><path d="M31.94 126.46L75.24 151.46L75.24 201.46L31.94 226.46L-11.36 201.46L-11.36 151.46zM75.24 201.46L118.55 226.46L118.55 276.46L75.24 301.46L31.94 276.46L31.94 226.46zM75.24 351.46L118.55 376.46L118.55 426.46L75.24 451.46L31.94 426.46L31.94 376.46zM161.85 351.46L205.15 376.46L205.15 426.46L161.85 451.46L118.55 426.46L118.55 376.46zM248.45 51.46L291.75 76.46L291.75 126.46L248.45 151.46L205.15 126.46L205.15 76.46zM248.45 501.46L291.75 526.46L291.75 576.46L248.45 601.46L205.15 576.46L205.15 526.46zM291.75 -23.54L335.06 1.46L335.06 51.46L291.75 76.46L248.45 51.46L248.45 1.46zM291.75 126.46L335.06 151.46L335.06 201.46L291.75 226.46L248.45 201.46L248.45 151.46zM421.66 51.46L464.97 76.46L464.97 126.46L421.66 151.46L378.36 126.46L378.36 76.46zM421.66 351.46L464.97 376.46L464.97 426.46L421.66 451.46L378.36 426.46L378.36 376.46zM421.66 501.46L464.97 526.46L464.97 576.46L421.66 601.46L378.36 576.46L378.36 526.46zM551.57 126.46L594.87 151.46L594.87 201.46L551.57 226.46L508.27 201.46L508.27 151.46zM594.87 201.46L638.18 226.46L638.18 276.46L594.87 301.46L551.57 276.46L551.57 226.46zM594.87 501.46L638.18 526.46L638.18 576.46L594.87 601.46L551.57 576.46L551.57 526.46zM724.78 -23.54L768.08 1.46L768.08 51.46L724.78 76.46L681.48 51.46L681.48 1.46zM854.69 351.46L897.99 376.46L897.99 426.46L854.69 451.46L811.39 426.46L811.39 376.46zM897.99 126.46L941.29 151.46L941.29 201.46L897.99 226.46L854.69 201.46L854.69 151.46zM941.29 501.46L984.6 526.46L984.6 576.46L941.29 601.46L897.99 576.46L897.99 526.46zM1027.9 201.46L1071.2 226.46L1071.2 276.46L1027.9 301.46L984.6 276.46L984.6 226.46zM984.6 276.46L1027.9 301.46L1027.9 351.46L984.6 376.46L941.29 351.46L941.29 301.46zM984.6 426.46L1027.9 451.46L1027.9 501.46L984.6 526.46L941.29 501.46L941.29 451.46zM1157.81 126.46L1201.11 151.46L1201.11 201.46L1157.81 226.46L1114.5 201.46L1114.5 151.46zM1287.71 51.46L1331.02 76.46L1331.02 126.46L1287.71 151.46L1244.41 126.46L1244.41 76.46zM1287.71 201.46L1331.02 226.46L1331.02 276.46L1287.71 301.46L1244.41 276.46L1244.41 226.46zM1331.02 276.46L1374.32 301.46L1374.32 351.46L1331.02 376.46L1287.71 351.46L1287.71 301.46zM1374.32 351.46L1417.62 376.46L1417.62 426.46L1374.32 451.46L1331.02 426.46L1331.02 376.46zM1374.32 501.46L1417.62 526.46L1417.62 576.46L1374.32 601.46L1331.02 576.46L1331.02 526.46z" stroke="rgba(6, 80, 156, 0.93)" stroke-width="2"></path></g><defs><mask id="SvgjsMask1003"><rect width="1440" height="560" fill="#ffffff"></rect></mask></defs></svg>