<svg xmlns="http://www.w3.org/2000/svg" version="1.1" xmlns:xlink="http://www.w3.org/1999/xlink" xmlns:svgjs="http://svgjs.dev/svgjs" width="1440" height="250" preserveAspectRatio="none" viewBox="0 0 1440 250"><g mask="url(&quot;#SvgjsMask1000&quot;)" fill="none"><rect width="1440" height="250" x="0" y="0" fill="#0e2a47"></rect><path d="M11 250L261 0L507 0L257 250z" fill="url(&quot;#SvgjsLinearGradient1001&quot;)"></path><path d="M253.60000000000002 250L503.6 0L704.6 0L454.6 250z" fill="url(&quot;#SvgjsLinearGradient1001&quot;)"></path><path d="M516.2 250L766.2 0L821.7 0L571.7 250z" fill="url(&quot;#SvgjsLinearGradient1001&quot;)"></path><path d="M754.8000000000001 250L1004.8000000000001 0L1232.8000000000002 0L982.8000000000001 250z" fill="url(&quot;#SvgjsLinearGradient1001&quot;)"></path><path d="M1410 250L1160 0L932 0L1182 250z" fill="url(&quot;#SvgjsLinearGradient1002&quot;)"></path><path d="M1155.4 250L905.4000000000001 0L624.9000000000001 0L874.9000000000001 250z" fill="url(&quot;#SvgjsLinearGradient1002&quot;)"></path><path d="M932.8 250L682.8 0L516.3 0L766.3 250z" fill="url(&quot;#SvgjsLinearGradient1002&quot;)"></path><path d="M711.1999999999999 250L461.19999999999993 0L141.69999999999993 0L391.69999999999993 250z" fill="url(&quot;#SvgjsLinearGradient1002&quot;)"></path><path d="M1207.1518559005349 250L1440 17.151855900534855L1440 250z" fill="url(&quot;#SvgjsLinearGradient1001&quot;)"></path><path d="M0 250L232.84814409946515 250L 0 17.151855900534855z" fill="url(&quot;#SvgjsLinearGradient1002&quot;)"></path></g><defs><mask id="SvgjsMask1000"><rect width="1440" height="250" fill="#ffffff"></rect></mask><linearGradient x1="0%" y1="100%" x2="100%" y2="0%" id="SvgjsLinearGradient1001"><stop stop-color="rgba(15, 70, 185, 0.2)" offset="0"></stop><stop stop-opacity="0" stop-color="rgba(15, 70, 185, 0.2)" offset="0.66"></stop></linearGradient><linearGradient x1="100%" y1="100%" x2="0%" y2="0%" id="SvgjsLinearGradient1002"><stop stop-color="rgba(15, 70, 185, 0.2)" offset="0"></stop><stop stop-opacity="0" stop-color="rgba(15, 70, 185, 0.2)" offset="0.66"></stop></linearGradient></defs></svg>